<?xml version="1.0" standalone="no"?>
<!DOCTYPE svg PUBLIC "-//W3C//DTD SVG 20010904//EN"
 "http://www.w3.org/TR/2001/REC-SVG-20010904/DTD/svg10.dtd">
<svg version="1.0" xmlns="http://www.w3.org/2000/svg"
 width="256.000000pt" height="256.000000pt" viewBox="0 0 256.000000 256.000000"
 preserveAspectRatio="xMidYMid meet">
<metadata>
Created by potrace 1.11, written by Peter Selinger 2001-2013
</metadata>
<g transform="translate(0.000000,256.000000) scale(0.100000,-0.100000)"
fill="#000000" stroke="none">
<path d="M996 1915 l-319 -195 -31 19 c-17 10 -143 82 -280 161 -194 110 -254
140 -273 135 -28 -7 -48 -49 -34 -73 5 -9 137 -89 293 -178 l283 -162 3 -350
2 -350 -289 -192 c-187 -124 -291 -199 -295 -213 -7 -28 10 -56 40 -63 20 -5
70 24 292 171 147 98 276 183 287 191 18 11 50 -5 330 -176 171 -104 317 -190
325 -190 17 0 45 16 405 234 143 87 267 164 275 172 13 13 15 71 16 393 0 207
4 382 7 388 4 6 110 79 236 163 126 83 232 158 235 166 9 24 -12 63 -38 70
-26 6 -39 -1 -377 -227 l-116 -78 -104 63 c-57 35 -198 120 -313 189 -115 70
-216 127 -225 127 -9 -1 -160 -88 -335 -195z m601 -81 c142 -86 273 -165 291
-176 l32 -20 0 -358 0 -358 -277 -168 c-153 -92 -285 -172 -294 -177 -12 -8
-74 25 -270 144 -140 84 -272 165 -294 179 l-40 25 1 354 0 353 25 18 c38 28
553 339 561 340 4 0 124 -70 265 -156z"/>
<path d="M1730 1502 c-23 -19 -23 -20 -23 -252 0 -231 0 -234 23 -252 23 -19
58 -16 72 6 10 14 9 11 12 251 1 188 -5 255 -24 255 -5 0 -15 2 -23 5 -7 3
-24 -3 -37 -13z"/>
</g>
</svg>
